<svg id="Warstwa_1" data-name="Warstwa 1" xmlns="http://www.w3.org/2000/svg" viewBox="0 0 821.17 119.67"><defs><style>.cls-1{fill:#00b7ce;}.cls-2{fill:#1e1e1e;}</style></defs><title>1</title><path class="cls-1" d="M12.44,118.12h0A11.5,11.5,0,0,1,3,100L47,36.87a11.5,11.5,0,0,1,9.44-4.93H57a11.5,11.5,0,0,1,9.4,18.14L21.84,113.25A11.5,11.5,0,0,1,12.44,118.12Z"/><path class="cls-1" d="M117.25,43.48v63a11.64,11.64,0,1,1-23.27,0V80.05l-23.43,33.2a11.51,11.51,0,0,1-18.85-13.2l44-63.19a11.53,11.53,0,0,1,9.44-4.92h.62A11.65,11.65,0,0,1,117,41.23,10.84,10.84,0,0,1,117.25,43.48Z"/><path class="cls-1" d="M287.36,31.77q-15.32,0-25,10.78V13a11.5,11.5,0,0,0-3.45-8.23A11.67,11.67,0,0,0,239,13v92.29c0,.52,0,1.94.09,2.41A11.81,11.81,0,0,0,250.67,118a11.66,11.66,0,0,0,11.54-9.74c.09-.43.14-1.79.19-2.27,6.52,8.23,14.8,12.34,24.73,12.34s18.77-4.25,26.57-12.67,11.68-18.82,11.68-31.3S321.59,51.63,314,43.73,297.48,31.77,287.36,31.77Zm8.37,60.09a18.76,18.76,0,0,1-14.14,6.43,17.67,17.67,0,0,1-13.81-6.43c-3.83-4.3-5.72-9.88-5.72-16.69s1.89-12.48,5.72-17a17.56,17.56,0,0,1,13.95-6.76c5.53,0,10.26,2.27,14.14,6.86s6,10.26,6,17S299.79,87.56,295.73,91.86Z"/><path class="cls-1" d="M361.73,4.77a11.34,11.34,0,0,1,3.4,8.32A11.55,11.55,0,0,1,353.4,24.77a11.3,11.3,0,0,1-8.27-3.36,11.34,11.34,0,0,1-3.4-8.32,11.34,11.34,0,0,1,3.4-8.32,11.93,11.93,0,0,1,16.59,0Z"/><path class="cls-1" d="M361.68,36.59a11.61,11.61,0,0,1,3.45,8.27v61.41a11.7,11.7,0,0,1-23.4,0V44.87A11.67,11.67,0,0,1,353.4,33.19,11.85,11.85,0,0,1,361.68,36.59Z"/><path class="cls-1" d="M178.15,31.77q-19.08,0-31.72,12.53T133.8,75.08c0,12.2,4.21,22.41,12.62,30.73s19,12.48,31.72,12.48,23.31-4.16,31.72-12.48,12.62-18.53,12.62-30.73-4.21-22.41-12.62-30.78S190.86,31.77,178.15,31.77Zm14.94,60.09a20.52,20.52,0,0,1-29.93,0c-3.88-4.3-5.82-9.93-5.82-16.78s1.94-12.43,5.82-16.83a20.42,20.42,0,0,1,29.93,0c3.92,4.4,5.86,10,5.86,16.83S197,87.56,193.08,91.86Z"/><path class="cls-2" d="M440.44,105.71a9.37,9.37,0,0,1-4.44,7.94,30.71,30.71,0,0,1-15.93,4.63,28.41,28.41,0,0,1-20.42-8c-5.53-5.3-8.32-12.48-8.32-21.65V50H389.9a8.42,8.42,0,0,1,0-16.83h1.42V19.86a11.77,11.77,0,0,1,23.55,0V33.19h11.82a8.42,8.42,0,0,1,0,16.83H414.86V87.56c0,3.21.8,5.77,2.46,7.56a7.78,7.78,0,0,0,6,2.74,12.49,12.49,0,0,0,4.21-.71c4.54-1.56,9.6-.09,11.87,4.16A9,9,0,0,1,440.44,105.71Z"/><path class="cls-2" d="M538.49,75.1q0,18.24-12.62,30.7t-31.71,12.47q-19.09,0-31.72-12.47T449.81,75.1q0-18.24,12.62-30.78t31.72-12.55q19.09,0,31.71,12.55T538.49,75.1Zm-65.15,0q0,10.29,5.84,16.76a20.55,20.55,0,0,0,29.93,0Q515,85.39,515,75.1t-5.84-16.83a20.38,20.38,0,0,0-29.93,0Q473.35,64.81,473.34,75.1Z"/><path class="cls-2" d="M633.39,44.94v61.54a2.69,2.69,0,0,1,0,.61,11.72,11.72,0,0,1-23.43,0,2.69,2.69,0,0,1,0-.61V106a30.18,30.18,0,0,1-10,9.26,26,26,0,0,1-12.56,3.07c-9.16,0-16.91-2.93-23.14-8.69s-9.35-14.31-9.35-25.6V44.94A11.76,11.76,0,0,1,566.6,33.18,11.9,11.9,0,0,1,575,36.63a11.7,11.7,0,0,1,3.45,8.31V78.85c0,12.85,4.72,19.32,14.17,19.32a16.74,16.74,0,0,0,12.14-5.05c3.45-3.4,5.15-8.31,5.15-14.74V44.94a11.76,11.76,0,0,1,23.52,0Z"/><path class="cls-2" d="M694.78,97.54a23.27,23.27,0,0,0,14.15-4.89,10.33,10.33,0,0,1,14,1.17h0a10.25,10.25,0,0,1-1.5,15q-12.65,9.45-26.78,9.45-18.86,0-31.88-11.92t-13-31.17q0-19.25,13.17-31.33a44.68,44.68,0,0,1,31.25-12.08,48.68,48.68,0,0,1,18.32,3.74,46.15,46.15,0,0,1,8.27,4.34A9.89,9.89,0,0,1,723,54.08l-.13.17c-3.18,4.15-8.88,4.87-13.38,2.21A29,29,0,0,0,706.71,55a28,28,0,0,0-11.61-2.65,22.77,22.77,0,0,0-15.82,6q-6.63,6-6.62,16.68t6.62,16.6A22.53,22.53,0,0,0,694.78,97.54Z"/><path class="cls-2" d="M765.23,71.82v34.44A11.69,11.69,0,0,1,753.54,118h0a11.69,11.69,0,0,1-11.69-11.69V13.07A11.69,11.69,0,0,1,753.54,1.38h0a11.69,11.69,0,0,1,11.69,11.69V42.52Q775.83,31.77,789,31.77a29.7,29.7,0,0,1,22.21,9.35q9,9.35,9,24.94v40.21A11.69,11.69,0,0,1,808.56,118h0a11.69,11.69,0,0,1-11.69-11.69V71.2q0-19.32-14.18-19.33a17,17,0,0,0-12.24,5.06Q765.23,62,765.23,71.82Z"/></svg>